solid Octahedron with T-type intersection of edges.
facet normal     0.577350     0.577350     0.577350
    outer loop
   vertex        0.000000     0.000000     1.000000
   vertex        1.000000     0.000000     0.000000
   vertex        0.500000     0.500000     0.000000
    endloop
endfacet
facet normal     0.577350     0.577350     0.577350
    outer loop
   vertex        0.000000     0.000000     1.000000
   vertex        0.500000     0.500000     0.000000
   vertex        0.000000     1.000000     0.000000
    endloop
endfacet
facet normal    -0.577350     0.577350     0.577350
    outer loop
   vertex        0.000000     0.000000     1.000000
   vertex        0.000000     1.000000     0.000000
   vertex       -1.000000     0.000000     0.000000
    endloop
endfacet
facet normal    -0.577350    -0.577350     0.577350
    outer loop
   vertex        0.000000     0.000000     1.000000
   vertex       -1.000000     0.000000     0.000000
   vertex        0.000000    -1.000000     0.000000
    endloop
endfacet
facet normal     0.577350    -0.577350     0.577350
    outer loop
   vertex        0.000000     0.000000     1.000000
   vertex        0.000000    -1.000000     0.000000
   vertex        1.000000     0.000000     0.000000
    endloop
endfacet
facet normal     0.577350     0.577350    -0.577350
    outer loop
   vertex        0.000000     0.000000    -1.000000
   vertex        0.000000     1.000000     0.000000
   vertex        1.000000     0.000000     0.000000
    endloop
endfacet
facet normal    -0.577350     0.577350    -0.577350
    outer loop
   vertex        0.000000     0.000000    -1.000000
   vertex       -1.000000     0.000000     0.000000
   vertex        0.000000     1.000000     0.000000
    endloop
endfacet
facet normal    -0.577350    -0.577350    -0.577350
    outer loop
   vertex        0.000000     0.000000    -1.000000
   vertex        0.000000    -1.000000     0.000000
   vertex       -1.000000     0.000000     0.000000
    endloop
endfacet
facet normal     0.577350    -0.577350    -0.577350
    outer loop
   vertex        0.000000     0.000000    -1.000000
   vertex        1.000000     0.000000     0.000000
   vertex        0.000000    -1.000000     0.000000
    endloop
endfacet
endsolid
